<svg xmlns="http://www.w3.org/2000/svg" width="34" height="36" fill="none"><path fill="#5D5FEF" d="M33.25 9.25A3.75 3.75 0 0 0 29.5 5.5h-5V4.25A3.75 3.75 0 0 0 20.75.5h-7.5A3.75 3.75 0 0 0 9.5 4.25V5.5h-5a3.75 3.75 0 0 0-1.137 7.3l2.162 19.463A3.75 3.75 0 0 0 9.25 35.5h15.5a3.75 3.75 0 0 0 3.75-3.237L30.663 12.8a3.75 3.75 0 0 0 2.587-3.55ZM12 4.25A1.25 1.25 0 0 1 13.25 3h7.5A1.25 1.25 0 0 1 22 4.25V5.5H12V4.25Zm13.988 27.738A1.25 1.25 0 0 1 24.738 33H9.25A1.25 1.25 0 0 1 8 31.988L5.9 13h22.2l-2.113 18.988ZM29.5 10.5h-25a1.25 1.25 0 0 1 0-2.5h25a1.25 1.25 0 1 1 0 2.5Z"/><path fill="#5D5FEF" d="M13.25 29.25A1.25 1.25 0 0 0 14.5 28V16.75a1.25 1.25 0 0 0-2.5 0V28a1.25 1.25 0 0 0 1.25 1.25Zm7.5 0A1.25 1.25 0 0 0 22 28V16.75a1.25 1.25 0 0 0-2.5 0V28a1.25 1.25 0 0 0 1.25 1.25Z"/></svg>