<svg width="12" height="12" viewBox="0 0 12 12" fill="none" xmlns="http://www.w3.org/2000/svg">
<g clip-path="url(#clip0_1007_1391)">
<path d="M7.3226 4.67729C7.18044 4.5343 7.02284 4.40754 6.85269 4.29936C6.40202 4.01078 5.87809 3.85742 5.34295 3.85743C4.97521 3.85674 4.61097 3.92883 4.27121 4.06954C3.93145 4.21025 3.62289 4.4168 3.36331 4.67729L0.819766 7.22282C0.296357 7.74723 0.0021833 8.45775 0.00170956 9.19867C0.000725366 10.7448 1.25328 11.999 2.79941 12C3.16659 12.0012 3.53038 11.9298 3.86981 11.7898C4.20924 11.6497 4.51758 11.4439 4.77706 11.1841L6.87669 9.08448C6.90488 9.05651 6.9241 9.02077 6.93191 8.98183C6.93972 8.94289 6.93576 8.90251 6.92053 8.86583C6.9053 8.82915 6.87949 8.79784 6.84639 8.77588C6.8133 8.75392 6.77442 8.74232 6.7347 8.74254H6.65472C6.21606 8.74408 5.78132 8.65985 5.37496 8.49459C5.33836 8.47953 5.29811 8.47567 5.25931 8.4835C5.22051 8.49133 5.18491 8.5105 5.15701 8.53858L3.64727 10.0503C3.17847 10.5191 2.41838 10.5191 1.94958 10.0503C1.48077 9.5815 1.48077 8.82142 1.94958 8.35261L4.50313 5.80108C4.97156 5.33323 5.7304 5.33323 6.19883 5.80108C6.51452 6.09819 7.00695 6.09819 7.32262 5.80108C7.45845 5.66513 7.54079 5.48483 7.55459 5.29316C7.56181 5.17992 7.54486 5.06645 7.50486 4.96026C7.46486 4.85408 7.40273 4.75762 7.3226 4.67729Z" fill="#171717"/>
<path d="M11.1796 0.819995C10.0863 -0.273332 8.31366 -0.273332 7.22034 0.819995L5.1227 2.91561C5.09455 2.9439 5.07551 2.97996 5.06803 3.01917C5.06054 3.05837 5.06496 3.09891 5.08071 3.13558C5.09628 3.17236 5.1225 3.20363 5.156 3.22537C5.1895 3.24711 5.22874 3.25832 5.26867 3.25755H5.34265C5.7808 3.25674 6.21487 3.34166 6.62042 3.50751C6.65702 3.52258 6.69727 3.52644 6.73607 3.51861C6.77487 3.51078 6.81048 3.49161 6.83837 3.46353L8.3441 1.95979C8.81291 1.49098 9.57299 1.49098 10.0418 1.95979C10.5106 2.4286 10.5106 3.18868 10.0418 3.65749L8.16613 5.53114L8.15012 5.54914L7.49425 6.20103C7.02582 6.66887 6.26697 6.66887 5.79854 6.20103C5.48285 5.90392 4.99042 5.90392 4.67475 6.20103C4.53807 6.33799 4.45566 6.51986 4.44279 6.71293C4.43556 6.82617 4.4525 6.93965 4.4925 7.04584C4.53249 7.15203 4.59462 7.24849 4.67475 7.32883C4.90619 7.56125 5.177 7.75081 5.4746 7.88872C5.51659 7.90871 5.55859 7.92471 5.60058 7.94271C5.64257 7.9607 5.68656 7.97469 5.72855 7.9907C5.77059 8.0065 5.81329 8.02051 5.85652 8.03269L5.9745 8.06468C6.05448 8.08467 6.13448 8.10067 6.21645 8.11466C6.3152 8.12933 6.41465 8.13868 6.51441 8.14266H6.66637L6.78635 8.12867C6.83033 8.12668 6.87633 8.11668 6.92833 8.11668H6.99631L7.13429 8.09669L7.19828 8.08469L7.31426 8.06069H7.33626C7.82745 7.93732 8.27596 7.68299 8.63402 7.32482L11.1796 4.77928C12.273 3.68596 12.273 1.91332 11.1796 0.819995Z" fill="#171717"/>
</g>
<defs>
<clipPath id="clip0_1007_1391">
<rect width="12" height="12" fill="white"/>
</clipPath>
</defs>
</svg>
