<svg width="24" height="24" viewBox="0 0 24 24" fill="none" xmlns="http://www.w3.org/2000/svg">
<g clip-path="url(#clip0_1007_1383)">
<path d="M14.6435 9.35457C14.3592 9.06859 14.044 8.81508 13.7037 8.59871C12.8023 8.02157 11.7545 7.71484 10.6842 7.71485C9.94871 7.71348 9.22022 7.85766 8.5407 8.13908C7.86118 8.4205 7.24407 8.8336 6.72491 9.35457L1.63782 14.4456C0.591005 15.4945 0.00265761 16.9155 0.00171014 18.3973C-0.000258253 21.4896 2.50485 23.9979 5.59711 23.9999C6.33146 24.0025 7.05905 23.8596 7.73791 23.5795C8.41677 23.2995 9.03346 22.8878 9.55242 22.3682L13.7517 18.169C13.808 18.113 13.8465 18.0415 13.8621 17.9637C13.8777 17.8858 13.8698 17.805 13.8393 17.7317C13.8089 17.6583 13.7573 17.5957 13.6911 17.5518C13.6249 17.5078 13.5471 17.4846 13.4677 17.4851H13.3077C12.4304 17.4882 11.5609 17.3197 10.7482 16.9892C10.675 16.9591 10.5945 16.9513 10.5169 16.967C10.4393 16.9827 10.3681 17.021 10.3123 17.0772L7.29284 20.1006C6.35522 21.0382 4.83506 21.0382 3.89745 20.1006C2.95983 19.163 2.95983 17.6428 3.89745 16.7052L9.00455 11.6022C9.94141 10.6665 11.4591 10.6665 12.396 11.6022C13.0273 12.1964 14.0122 12.1964 14.6435 11.6022C14.9152 11.3303 15.0799 10.9697 15.1075 10.5863C15.1219 10.3598 15.088 10.1329 15.008 9.92052C14.928 9.70816 14.8038 9.51524 14.6435 9.35457Z" fill="#171717"/>
<path d="M22.3575 1.63999C20.1709 -0.546663 16.6256 -0.546663 14.439 1.63999L10.2437 5.83122C10.1874 5.8878 10.1493 5.95993 10.1343 6.03833C10.1194 6.11673 10.1282 6.19782 10.1597 6.27116C10.1908 6.34471 10.2433 6.40726 10.3103 6.45074C10.3773 6.49422 10.4558 6.51663 10.5356 6.5151H10.6836C11.5599 6.51349 12.428 6.68332 13.2391 7.01502C13.3123 7.04515 13.3928 7.05288 13.4704 7.03722C13.548 7.02156 13.6192 6.98322 13.675 6.92706L16.6865 3.91958C17.6241 2.98197 19.1443 2.98197 20.0819 3.91958C21.0195 4.85719 21.0195 6.37736 20.0819 7.31497L16.3305 11.0623L16.2985 11.0983L14.9868 12.4021C14.0499 13.3377 12.5322 13.3377 11.5954 12.4021C10.964 11.8078 9.97914 11.8078 9.3478 12.4021C9.07442 12.676 8.9096 13.0397 8.88387 13.4259C8.86941 13.6523 8.9033 13.8793 8.98329 14.0917C9.06327 14.3041 9.18753 14.497 9.3478 14.6577C9.81068 15.1225 10.3523 15.5016 10.9475 15.7774C11.0315 15.8174 11.1155 15.8494 11.1994 15.8854C11.2834 15.9214 11.3714 15.9494 11.4554 15.9814C11.5395 16.013 11.6249 16.041 11.7113 16.0654L11.9473 16.1294C12.1073 16.1693 12.2673 16.2013 12.4312 16.2293C12.6287 16.2587 12.8276 16.2774 13.0271 16.2853H13.331L13.571 16.2573C13.659 16.2534 13.751 16.2334 13.855 16.2334H13.9909L14.2669 16.1934L14.3949 16.1694L14.6268 16.1214H14.6708C15.6532 15.8746 16.5502 15.366 17.2663 14.6496L22.3574 9.55857C24.5442 7.37191 24.5442 3.82664 22.3575 1.63999Z" fill="#171717"/>
</g>
<defs>
<clipPath id="clip0_1007_1383">
<rect width="24" height="24" fill="white"/>
</clipPath>
</defs>
</svg>
