<svg width="16" height="16" viewBox="0 0 16 16" fill="none" xmlns="http://www.w3.org/2000/svg">
<g clip-path="url(#clip0_1007_1387)">
<path d="M9.76118 6.23646C9.57164 6.04581 9.36151 5.8768 9.13464 5.73256C8.53375 5.34779 7.83518 5.14331 7.12166 5.14332C6.63133 5.1424 6.14568 5.23852 5.69266 5.42614C5.23965 5.61375 4.82824 5.88915 4.48213 6.23646L1.09074 9.63051C0.392864 10.3297 0.000632416 11.2771 7.72806e-07 12.265C-0.00131149 14.3265 1.66876 15.9987 3.73027 16C4.21984 16.0017 4.70489 15.9065 5.15747 15.7198C5.61004 15.5331 6.02117 15.2586 6.36714 14.9122L9.16664 12.1127C9.20423 12.0754 9.22986 12.0278 9.24027 11.9759C9.25068 11.9239 9.2454 11.8701 9.22509 11.8212C9.20478 11.7723 9.17037 11.7305 9.12625 11.7013C9.08212 11.672 9.03028 11.6565 8.97733 11.6568H8.87069C8.2858 11.6589 7.70614 11.5466 7.16434 11.3262C7.11553 11.3061 7.06187 11.301 7.01013 11.3114C6.9584 11.3219 6.91093 11.3474 6.87373 11.3849L4.86075 13.4005C4.23568 14.0256 3.22223 14.0256 2.59716 13.4005C1.97208 12.7754 1.97208 11.762 2.59716 11.1369L6.00189 7.73485C6.62647 7.11106 7.63825 7.11106 8.26283 7.73485C8.68375 8.131 9.34032 8.131 9.76122 7.73485C9.94232 7.55359 10.0521 7.31319 10.0705 7.05763C10.0801 6.90665 10.0575 6.75534 10.0042 6.61376C9.95087 6.47219 9.86803 6.34357 9.76118 6.23646Z" fill="#171717"/>
<path d="M14.9045 1.09333C13.4468 -0.364442 11.0833 -0.364442 9.62549 1.09333L6.82864 3.88748C6.79111 3.9252 6.76572 3.97329 6.75574 4.02555C6.74576 4.07782 6.75165 4.13188 6.77265 4.18077C6.79341 4.22981 6.82837 4.27151 6.87304 4.30049C6.9177 4.32948 6.97003 4.34442 7.02327 4.3434H7.1219C7.7061 4.34233 8.28487 4.45555 8.8256 4.67668C8.8744 4.69677 8.92807 4.70192 8.9798 4.69148C9.03154 4.68104 9.07901 4.65548 9.1162 4.61804L11.1238 2.61305C11.7489 1.98798 12.7624 1.98798 13.3874 2.61305C14.0125 3.23813 14.0125 4.25157 13.3874 4.87665L10.8865 7.37485L10.8652 7.39885L9.9907 8.26804C9.36613 8.89183 8.35434 8.89183 7.72976 8.26804C7.30884 7.87189 6.65227 7.87189 6.23138 8.26804C6.04913 8.45066 5.93925 8.69314 5.92209 8.95057C5.91245 9.10156 5.93504 9.25287 5.98837 9.39445C6.04169 9.53603 6.12453 9.66465 6.23138 9.77177C6.53996 10.0817 6.90104 10.3344 7.29784 10.5183C7.35383 10.5449 7.40982 10.5663 7.46581 10.5903C7.5218 10.6143 7.58045 10.6329 7.63644 10.6543C7.69249 10.6753 7.74942 10.694 7.80706 10.7103L7.96438 10.7529C8.07102 10.7796 8.17768 10.8009 8.28698 10.8195C8.41864 10.8391 8.55124 10.8516 8.68425 10.8569H8.88687L9.04684 10.8382C9.10548 10.8356 9.16682 10.8222 9.23615 10.8222H9.32679L9.51076 10.7956L9.59608 10.7796L9.75071 10.7476H9.78005C10.435 10.5831 11.033 10.244 11.5104 9.76642L14.9044 6.37238C16.3623 4.91461 16.3623 2.5511 14.9045 1.09333Z" fill="#171717"/>
</g>
<defs>
<clipPath id="clip0_1007_1387">
<rect width="16" height="16" fill="white"/>
</clipPath>
</defs>
</svg>
