<svg width="276" height="35" viewBox="0 0 276 35" fill="none" xmlns="http://www.w3.org/2000/svg">
<path d="M33.6236 31.414C33.6236 31.8573 33.5455 32.2689 33.3892 32.6489C33.2329 33.0289 33.014 33.3614 32.7326 33.6463C32.4669 33.9155 32.1465 34.1292 31.7713 34.2875C31.3961 34.4459 30.9897 34.525 30.552 34.525H8.55832C7.99558 34.525 7.38595 34.4617 6.72942 34.335C6.08852 34.1926 5.44763 33.9788 4.80673 33.6938C4.18146 33.4089 3.57964 33.0447 3.00127 32.6014C2.4229 32.1423 1.90706 31.5961 1.45374 30.9628C1.01606 30.3136 0.664345 29.5695 0.398607 28.7304C0.132869 27.8755 0 26.9176 0 25.8569V9.13798C0 8.56802 0.0625265 7.95847 0.18758 7.30935C0.328264 6.64439 0.539292 5.99527 0.820661 5.36198C1.10203 4.71286 1.46937 4.0954 1.92269 3.5096C2.37601 2.92381 2.9153 2.40926 3.54057 1.96596C4.18146 1.50682 4.91615 1.14268 5.74463 0.873529C6.5731 0.60438 7.511 0.469806 8.55832 0.469806H33.3423V6.64439H8.55832C7.76111 6.64439 7.15147 6.85813 6.72942 7.2856C6.30737 7.71307 6.09634 8.34636 6.09634 9.18547V25.8569C6.09634 26.6485 6.30737 27.2659 6.72942 27.7092C7.16711 28.1367 7.77674 28.3504 8.55832 28.3504H27.5273V20.6085H11.3017V14.3864H30.552C30.9897 14.3864 31.3961 14.4735 31.7713 14.6476C32.1465 14.8059 32.4669 15.0276 32.7326 15.3126C33.014 15.5975 33.2329 15.93 33.3892 16.31C33.5455 16.6741 33.6236 17.0699 33.6236 17.4974V31.414Z" fill="#5D5FEF"/>
<path d="M46.1211 34.525H40.0248V0.469806H46.1211V34.525Z" fill="#5D5FEF"/>
<path d="M83.6371 6.64439H70.2017V34.525H64.1053V6.64439H50.6465V0.469806H83.6371V6.64439Z" fill="#5D5FEF"/>
<path d="M94.2822 14.3864H115.69V0.469806H121.786V34.525H115.69V20.6085H94.2822V34.525H88.1859V0.469806H94.2822V14.3864Z" fill="#5D5FEF"/>
<path d="M161.928 34.525H155.832V26.1656H134.401V34.525H128.304V17.4974C128.304 15.0118 128.727 12.724 129.571 10.6341C130.415 8.54427 131.587 6.7473 133.088 5.24324C134.588 3.73917 136.363 2.56758 138.41 1.72847C140.458 0.889361 142.693 0.469806 145.116 0.469806H158.857C159.279 0.469806 159.677 0.548967 160.052 0.70729C160.427 0.865613 160.756 1.08726 161.037 1.37225C161.318 1.65723 161.537 1.9897 161.694 2.36968C161.85 2.74965 161.928 3.15338 161.928 3.58085V34.525ZM134.401 19.991H155.832V6.64439H145.116C144.929 6.64439 144.53 6.67606 143.92 6.73939C143.326 6.78688 142.631 6.92146 141.834 7.14311C141.052 7.36476 140.224 7.70516 139.348 8.16429C138.473 8.62343 137.668 9.25672 136.933 10.0642C136.198 10.8716 135.589 11.8849 135.104 13.104C134.635 14.3072 134.401 15.7717 134.401 17.4974V19.991Z" fill="#5D5FEF"/>
<path d="M202.633 31.889C202.633 32.3323 202.547 32.7439 202.375 33.1239C202.219 33.5038 202 33.8363 201.718 34.1213C201.453 34.3905 201.132 34.6042 200.757 34.7625C200.382 34.9208 199.983 35 199.561 35C199.186 35 198.803 34.9288 198.412 34.7863C198.037 34.6438 197.701 34.4142 197.404 34.0976L175.129 10.5391V34.525H169.033V3.10588C169.033 2.47259 169.205 1.90263 169.549 1.39599C169.908 0.873529 170.361 0.485638 170.908 0.232321C171.487 -0.0051627 172.081 -0.0605757 172.691 0.0660825C173.3 0.176908 173.824 0.461889 174.261 0.921026L196.537 24.4557V0.469806H202.633V31.889Z" fill="#5D5FEF"/>
<path d="M239.844 34.525H217.85C217.288 34.525 216.678 34.4617 216.021 34.335C215.381 34.1926 214.74 33.9788 214.099 33.6938C213.473 33.4089 212.872 33.0447 212.293 32.6014C211.715 32.1423 211.199 31.5961 210.746 30.9628C210.308 30.3136 209.956 29.5695 209.691 28.7304C209.425 27.8755 209.292 26.9176 209.292 25.8569V9.13798C209.292 8.56802 209.355 7.95847 209.48 7.30935C209.62 6.64439 209.831 5.99527 210.113 5.36198C210.394 4.71286 210.761 4.0954 211.215 3.5096C211.668 2.92381 212.207 2.40926 212.833 1.96596C213.473 1.50682 214.208 1.14268 215.037 0.873529C215.865 0.60438 216.803 0.469806 217.85 0.469806H239.844V6.64439H217.85C217.053 6.64439 216.443 6.85813 216.021 7.2856C215.599 7.71307 215.388 8.34636 215.388 9.18547V25.8569C215.388 26.6485 215.599 27.2659 216.021 27.7092C216.459 28.1367 217.069 28.3504 217.85 28.3504H239.844V34.525Z" fill="#5D5FEF"/>
<path d="M273.257 20.6085H254.006V14.3864H273.257V20.6085ZM276 34.525H254.006C253.162 34.525 252.24 34.3746 251.239 34.0738C250.239 33.773 249.309 33.2822 248.449 32.6014C247.605 31.9048 246.894 31.0103 246.316 29.9178C245.753 28.8096 245.471 27.4559 245.471 25.8569V3.58085C245.471 3.15338 245.55 2.74965 245.706 2.36968C245.862 1.9897 246.073 1.65723 246.339 1.37225C246.62 1.08726 246.949 0.865613 247.324 0.70729C247.699 0.548967 248.105 0.469806 248.543 0.469806H276V6.64439H251.568V25.8569C251.568 26.6643 251.779 27.2818 252.201 27.7092C252.623 28.1367 253.24 28.3504 254.053 28.3504H276V34.525Z" fill="#5D5FEF"/>
</svg>
