<svg width="12" height="12" viewBox="0 0 12 12" fill="none" xmlns="http://www.w3.org/2000/svg">
<path d="M7.41061 2.01558L0.80808 8.61862C0.774832 8.65195 0.751137 8.6936 0.739465 8.73921L0.00761329 11.6766C-0.00315041 11.7202 -0.00249077 11.7659 0.00952847 11.8091C0.0215477 11.8524 0.0445204 11.8918 0.0762275 11.9236C0.124929 11.9721 0.190869 11.9994 0.259629 11.9995C0.280841 11.9995 0.301971 11.9969 0.322542 11.9917L3.25996 11.2597C3.30564 11.2483 3.34733 11.2246 3.38057 11.1912L9.98372 4.58863L7.41061 2.01558ZM11.6194 1.11526L10.8845 0.380314C10.3933 -0.110902 9.53711 -0.110414 9.04646 0.380314L8.14617 1.28063L10.7191 3.85359L11.6194 2.9533C11.8648 2.70803 12 2.38155 12 2.03434C12 1.68713 11.8648 1.36065 11.6194 1.11526Z" fill="black"/>
</svg>
