<svg width="16" height="16" viewBox="0 0 16 16" fill="none" xmlns="http://www.w3.org/2000/svg">
<path d="M9.88081 2.68744L1.07744 11.4915C1.03311 11.5359 1.00152 11.5915 0.985954 11.6523L0.010151 15.5688C-0.00420054 15.627 -0.00332103 15.6878 0.0127046 15.7455C0.0287303 15.8032 0.0593605 15.8557 0.101637 15.8981C0.166572 15.9629 0.254492 15.9992 0.346172 15.9993C0.374454 15.9993 0.402627 15.9958 0.430055 15.9889L4.34662 15.013C4.40752 14.9977 4.46311 14.9661 4.50743 14.9216L13.3116 6.11818L9.88081 2.68744ZM15.4926 1.48701L14.5126 0.507085C13.8577 -0.147869 12.7162 -0.147219 12.0619 0.507085L10.8616 1.70751L14.2922 5.13812L15.4926 3.93773C15.8197 3.61071 16 3.1754 16 2.71245C16 2.2495 15.8197 1.8142 15.4926 1.48701Z" fill="black"/>
</svg>
