<svg width="300" height="435" viewBox="0 0 300 435" fill="none" xmlns="http://www.w3.org/2000/svg">
<path fill-rule="evenodd" clip-rule="evenodd" d="M116.644 196C118.447 220.61 234.607 293.064 235.284 295.096C235.736 296.452 199.128 380.778 199.128 380.778L209.282 384.724C209.282 384.724 265.433 295.416 262.549 285.9C258.419 272.276 172.422 196.262 172.422 196.262L116.644 196Z" fill="#F0D2B5"/>
<path fill-rule="evenodd" clip-rule="evenodd" d="M201.8 368.082L218.379 374.117C253.336 334.674 267.038 302.131 264.54 285.549C262.042 268.968 174.724 196.06 174.724 196.06L115.455 196.06C117.477 253.053 225.143 295.313 226.583 297.742C228.023 300.171 213.851 323.957 201.8 368.082Z" fill="#2F3676"/>
<path fill-rule="evenodd" clip-rule="evenodd" d="M198.379 378.737C197.533 377.927 196.173 377.94 195.422 378.838C194.051 380.476 192.103 382.971 191.523 384.565C190.598 387.107 189.67 392.292 189.67 392.292C192.618 393.365 242.67 411.582 242.67 411.582C242.67 411.582 247.222 405.504 242.969 403.34C238.716 401.175 235.932 399.664 235.932 399.664L215.295 379.716C214.89 379.325 214.241 379.345 213.861 379.761L210.88 383.026C210.88 383.026 206.059 383.449 203.483 382.511C201.915 381.94 199.797 380.094 198.379 378.737Z" fill="#E4E4E4"/>
<path fill-rule="evenodd" clip-rule="evenodd" d="M130 196L78.254 320.227L27.3958 425.25H39.3949L170.674 196H130Z" fill="#F4CAA8"/>
<path fill-rule="evenodd" clip-rule="evenodd" d="M29.4496 419.284C28.3779 418.813 27.1043 419.29 26.7051 420.391C25.977 422.398 25 425.409 25 427.106C25 429.811 25.9012 435 25.9012 435C29.0392 435 82.3031 435 82.3031 435C82.3031 435 84.5016 427.732 79.7648 427.152C75.0281 426.573 71.895 426.106 71.895 426.106L45.68 414.419C45.1654 414.189 44.563 414.43 44.3483 414.951L42.6632 419.039C42.6632 419.039 38.2782 421.085 35.5367 421.085C33.8677 421.085 31.2457 420.074 29.4496 419.284Z" fill="#E4E4E4"/>
<path fill-rule="evenodd" clip-rule="evenodd" d="M31.9885 403.433L58.6507 408.433C79.2658 378.125 165.541 253.852 175 196H115.644C84.0549 237.821 51.639 372.624 31.9885 403.433Z" fill="#5C63AB"/>
<path fill-rule="evenodd" clip-rule="evenodd" d="M137.935 75.2443C144.411 79.1475 150.774 81.0333 153.76 80.2635C161.25 78.333 161.938 50.9351 156.143 40.1339C150.349 29.3328 120.558 24.625 119.057 46.0255C118.536 53.4529 121.654 60.0814 126.262 65.4901L118 104H142L137.935 75.2443Z" fill="#F0D2B5"/>
<path fill-rule="evenodd" clip-rule="evenodd" d="M139.135 48.3889C141.211 45.2979 143.204 42.9401 145.797 41.571C156.348 41.7377 157.583 39.8462 157.583 33.471C155.879 32.2515 149.866 30.1982 143.132 29.6206C139.697 28.6375 135.627 28.8224 131.707 30.4622C126.868 31.8352 122.771 34.7923 120.961 40.3283C114.412 51.629 119.382 63.3927 126.08 67.4112C127.863 65.2989 129.419 63.2518 130.808 61.2922C129.692 60.2027 129 58.6822 129 57C129 53.6863 131.686 51 135 51C135.244 51 135.484 51.0145 135.72 51.0427C135.869 55.1858 136.483 69.2027 138.094 74.0715C139.995 79.8116 151.084 81.221 154.951 81.221C158.292 81.221 158.178 78.0578 158.096 75.7908C158.085 75.4643 158.073 75.1564 158.073 74.8792C158.073 74.3001 157.32 74.3016 156.469 74.3033C155.364 74.3055 154.094 74.308 154.094 73.0401C154.094 71.6579 156.004 70.5978 157.713 69.6491C158.779 69.0572 159.768 68.5087 160.165 67.9525C161.419 66.1977 161.841 63.8311 159.95 63.8311C158.916 63.8311 157.498 64.427 155.791 65.144C153.215 66.2264 149.983 67.5847 146.426 67.5847C140.55 67.5847 139.153 48.6261 139.135 48.3889Z" fill="#191847"/>
<path fill-rule="evenodd" clip-rule="evenodd" d="M238.36 73.9624L200.456 85.3408L210.134 101.463L239.605 84.1185C253.362 83.2992 259.862 81.9424 259.105 80.048C258.466 78.4507 256.947 78.1785 255.548 77.9279C254.458 77.7326 253.441 77.5503 252.969 76.7648C251.892 74.9709 255.667 70.3012 259.438 66.023C263.21 61.7448 260.192 61.5455 258.369 61.8886C252.101 64.4334 245.431 68.458 238.36 73.9624ZM229.005 175.592L197.107 152.168L190.055 169.599L221.643 182.698C230.577 193.192 235.572 197.566 236.629 195.822C237.521 194.351 236.824 192.974 236.182 191.705C235.682 190.717 235.215 189.795 235.559 188.946C236.344 187.006 242.345 187.21 248.031 187.648C253.717 188.085 252.06 185.555 250.689 184.305C244.885 180.831 237.657 177.926 229.005 175.592Z" fill="#F0D2B5"/>
<path fill-rule="evenodd" clip-rule="evenodd" d="M147.561 89.0868C164.931 121.476 190.05 146.305 226.466 172.116L212.677 187.663C172.018 172.553 150.559 163.436 140.021 132.835C137.376 125.154 135.528 100.671 133.942 87.7888L147.561 89.0868Z" fill="#98C5FF"/>
<path fill-rule="evenodd" clip-rule="evenodd" d="M99 197H176C176 197 149.837 117.208 149.27 87.4716C149.251 86.4609 147.384 84.68 146.559 84.9132C137.5 87.4716 127.172 83 127.172 83C108.917 112.358 102.605 148.505 99 197Z" fill="#F2F2F2"/>
<path fill-rule="evenodd" clip-rule="evenodd" d="M146.486 127.791C158.512 179.377 157.958 221.606 131.407 221.606H90.3511C83.8304 177.784 100.968 117.024 116.856 86.3766C117.463 85.2063 118.754 83 121.797 83H133.727C133.732 83.0158 133.737 83.0316 133.743 83.0474C137.332 83.0768 141.286 83.208 145.567 83.3502C167.608 84.0819 198.341 85.1021 232.923 74L237 94.3735C205.787 114.448 174.181 129.999 146.486 127.791Z" fill="#BBD8FE"/>
</svg>
