<svg width="349" height="454" viewBox="0 0 349 454" fill="none" xmlns="http://www.w3.org/2000/svg">
<path fill-rule="evenodd" clip-rule="evenodd" d="M196.065 82.2443C189.589 86.1475 183.226 88.0333 180.24 87.2635C172.75 85.333 172.062 57.9351 177.857 47.1339C183.651 36.3328 213.442 31.625 214.943 53.0255C215.464 60.4529 212.346 67.0814 207.738 72.4901L216 111H192L196.065 82.2443Z" fill="#F0D2B5"/>
<path fill-rule="evenodd" clip-rule="evenodd" d="M191.536 34.6853C194.699 34.1665 203.216 33.8099 204.787 33.8101C205.79 33.8101 206.878 34.0394 207.473 33.1178C207.959 32.3631 207.781 31.0867 207.926 30.2109C208.095 29.1935 208.335 28.1892 208.577 27.1874C209.267 24.3369 210.31 21.625 211.769 19.0788C214.507 14.3019 218.519 10.5601 223.583 8.38278C229.176 5.97866 235.504 5.42817 241.52 5.91581C247.957 6.43752 253.784 8.56259 259.862 10.5624C265.654 12.4681 271.72 13.2182 277.778 12.2876C283.882 11.35 288.493 8.04203 293.641 4.90232C298.911 1.68801 304.934 -0.414264 311.165 0.0689985C316.98 0.520259 322.341 2.92161 327.15 6.12947C331.649 9.13081 335.362 12.7418 337.458 17.824C339.713 23.2909 339.711 29.2918 336.003 34.1233C330.628 41.1265 320.65 42.9376 312.349 42.7575C307.547 42.6537 302.832 41.7772 298.299 40.1828C292.253 38.0564 287.029 34.4523 281.373 31.528C278.719 30.1558 275.975 29.0288 273.099 28.217C270.309 27.4289 267.56 27.0675 265.034 28.7533C262.361 30.5367 259.966 32.2885 256.908 33.4049C253.974 34.476 250.867 35.075 247.742 35.0509C241.661 35.0039 235.667 33.1093 229.761 31.8402C224.946 30.8056 219.793 29.7743 214.883 30.769C212.834 31.1841 209.841 32.041 209.101 34.1702C221.556 36.4274 226.447 51.8302 222.936 63.1372C221.041 69.24 209.65 76.3742 205.221 73.1658C202.415 71.1333 204.119 68.4648 205.221 66.7033C207.332 63.3299 208.055 58.9967 204.148 56.648C200.778 54.6224 197.235 59.4327 197.168 59.4274C196.242 59.3544 188.24 54.8285 182.726 48.2241C177.287 48.5466 176.461 44.96 177.76 42.0269C179.059 39.0938 187.166 35.4024 191.536 34.6853Z" fill="#191847"/>
<path fill-rule="evenodd" clip-rule="evenodd" d="M280 257C288.837 257 296 264.163 296 273V365C296 373.837 288.837 381 280 381H165C156.163 381 149 373.837 149 365V273C149 264.163 156.163 257 165 257H280ZM264 285C266.209 285 268 286.791 268 289V349C268 351.209 266.209 353 264 353H181C178.791 353 177 351.209 177 349V289C177 286.791 178.791 285 181 285H264Z" fill="#C5CFD6"/>
<path fill-rule="evenodd" clip-rule="evenodd" d="M49.841 376C69.5569 351.924 82.8971 334.075 89.8617 322.454C101.787 302.555 111.547 284.848 114.627 278.084C121.972 261.955 97.7181 254.403 92.229 261.926C83.9209 273.312 66.178 309.143 39 369.417L49.841 376Z" fill="#F0D2B5"/>
<path fill-rule="evenodd" clip-rule="evenodd" d="M90.2424 369L126.935 276.637C134.783 259.8 96.8842 248.732 91.1167 256.568C78.0227 274.357 46.9012 344.534 43 349.834L90.2424 369Z" fill="#2F3676"/>
<path fill-rule="evenodd" clip-rule="evenodd" d="M187.967 350.477C180.819 340.051 154.821 304.974 140.661 290.461C136.592 286.291 132.621 282.288 128.866 278.557C117.704 267.47 95.4763 286.106 106.618 296.205C134.365 321.355 174.849 355.307 178.231 358.334C182.972 362.577 192.459 357.029 187.967 350.477Z" fill="#F0D2B5"/>
<path fill-rule="evenodd" clip-rule="evenodd" d="M183.336 346.185C184.029 345.241 185.37 345.017 186.266 345.771C187.901 347.146 190.252 349.264 191.101 350.734C192.453 353.076 194.267 358.021 194.267 358.021C191.55 359.59 145.422 386.222 145.422 386.222C145.422 386.222 139.884 381.027 143.696 378.157C147.509 375.286 149.988 373.315 149.988 373.315L166.848 350.087C167.179 349.631 167.821 349.538 168.267 349.882L171.77 352.579C171.77 352.579 176.591 352.159 178.965 350.788C180.411 349.953 182.176 347.767 183.336 346.185Z" fill="#E4E4E4"/>
<path fill-rule="evenodd" clip-rule="evenodd" d="M55.5504 371.284C56.6221 370.813 57.8957 371.29 58.2949 372.391C59.023 374.398 60 377.409 60 379.106C60 381.811 59.0988 387 59.0988 387C55.9608 387 2.69695 387 2.69695 387C2.69695 387 0.498421 379.732 5.23518 379.152C9.97193 378.573 13.105 378.106 13.105 378.106L39.32 366.419C39.8346 366.189 40.437 366.43 40.6517 366.951L42.3368 371.039C42.3368 371.039 46.7218 373.085 49.4633 373.085C51.1323 373.085 53.7543 372.074 55.5504 371.284Z" fill="#E4E4E4"/>
<path fill-rule="evenodd" clip-rule="evenodd" d="M140.138 281.25C140.138 281.25 185.883 273.798 201.42 271.058C230.943 265.852 239.552 249.965 234.462 215.302L180.066 215.302C169.268 218.42 89.8325 253.872 89.8325 253.872C80.3045 258.602 82.0789 272.548 83.8205 277.142C83.927 277.423 132.008 359.713 132.008 359.713L176.506 331.365L140.054 284.59C140.054 284.59 138.61 281.682 140.138 281.25Z" fill="#5C63AB"/>
<path fill-rule="evenodd" clip-rule="evenodd" d="M280.602 242.908C277.672 236.963 263.03 160.45 263.03 160.45L241.133 160.532C241.133 160.532 266.149 241.583 267.692 245.406C269.696 250.372 266.292 257.587 263.984 262.48C263.627 263.237 263.296 263.938 263.015 264.567C266.218 266 267.756 264.268 269.378 262.442C271.21 260.379 273.149 258.197 277.712 260.319C279.475 261.14 281.143 262.109 282.773 263.057C288.403 266.329 293.575 269.336 300.611 264.994C301.726 264.306 302.949 261.715 299.995 259.69C292.638 254.645 282.035 245.815 280.602 242.908ZM96.1789 213.095L124.507 185.46L133.916 201.74L104.458 219.108C97.0721 230.743 92.7341 235.77 91.4442 234.189C90.3566 232.857 90.8551 231.396 91.3142 230.051C91.6719 229.003 92.0057 228.025 91.5473 227.231C90.5004 225.42 84.5862 226.457 79.016 227.682C73.4457 228.906 74.7346 226.17 75.9185 224.742C81.1831 220.493 87.9365 216.611 96.1789 213.095Z" fill="#F0D2B5"/>
<path fill-rule="evenodd" clip-rule="evenodd" d="M196.305 98.332L187.658 96.8489C174.036 145.001 104.047 177.823 99.7509 195.823C98.1753 202.425 102.926 205.762 100.472 207.772L111.712 216C113.615 213.779 117.677 217.841 126.159 215C134.641 212.159 196.305 155.348 196.305 98.332Z" fill="#BBBDFF"/>
<path fill-rule="evenodd" clip-rule="evenodd" d="M211.684 88.279C213.888 88.1249 215.799 89.7865 215.954 91.9903L216.363 97.8479C232.637 110.371 272.97 147.793 283.481 217.457C284.585 224.775 282.588 228.694 280.993 231.826C279.902 233.968 278.998 235.742 279.403 237.983L264.694 242.043C264.694 240.389 262.84 239.13 260.448 237.506C256.97 235.146 252.355 232.013 250.649 225.767C249.031 219.848 246.663 212.454 243.833 204.229C243.566 215.122 241.5 225.14 237 233.438C225.773 254.139 160.891 231.437 154.113 210.318C150.495 199.049 155.628 189.588 162.416 177.076C171.033 161.192 182.317 140.392 181.759 104.734L181.039 94.4317C180.885 92.228 182.546 90.3166 184.75 90.1624L211.684 88.279Z" fill="#D4D5FF"/>
</svg>
