<svg width="16" height="10" viewBox="0 0 16 10" fill="none" xmlns="http://www.w3.org/2000/svg">
<path d="M15.4563 4.8C15.4375 4.75 14.9063 3.575 13.7313 2.39375C12.1625 0.83125 10.1813 0 8.00003 0C5.81878 0 3.83753 0.83125 2.26878 2.39375C1.09378 3.575 0.562535 4.75 0.543785 4.8C0.51588 4.86298 0.501465 4.93111 0.501465 5C0.501465 5.06889 0.51588 5.13702 0.543785 5.2C0.562535 5.25 1.09378 6.425 2.26878 7.60625C3.83753 9.16875 5.81878 10 8.00003 10C10.1813 10 12.1625 9.16875 13.7313 7.60625C14.9063 6.425 15.4375 5.25 15.4563 5.2C15.4842 5.13702 15.4986 5.06889 15.4986 5C15.4986 4.93111 15.4842 4.86298 15.4563 4.8ZM8.00003 9C6.07504 9 4.39378 8.3 3.00628 6.91875C2.43287 6.35402 1.94633 5.70741 1.56253 5C1.94581 4.29038 2.43237 3.64164 3.00628 3.075C4.39378 1.7 6.07504 1 8.00003 1C9.92503 1 11.6063 1.7 12.9938 3.075C13.5677 3.64164 14.0543 4.29038 14.4375 5C13.9875 5.84375 12.025 9 8.00003 9ZM8.00003 2C7.40669 2 6.82667 2.17595 6.33332 2.50559C5.83998 2.83524 5.45546 3.30377 5.2284 3.85195C5.00133 4.40013 4.94192 5.00333 5.05768 5.58527C5.17343 6.16721 5.45916 6.70176 5.87871 7.12132C6.29827 7.54088 6.83282 7.8266 7.41476 7.94236C7.99671 8.05811 8.59991 7.9987 9.14808 7.77164C9.69626 7.54458 10.1648 7.16006 10.4944 6.66671C10.8241 6.17336 11 5.59334 11 5C11 4.20435 10.684 3.44129 10.1214 2.87868C9.55875 2.31607 8.79568 2 8.00003 2ZM8.00003 7C7.60447 7 7.21779 6.8827 6.88889 6.66294C6.56 6.44318 6.30365 6.13082 6.15228 5.76537C6.0009 5.39991 5.96129 4.99778 6.03846 4.60982C6.11563 4.22186 6.30612 3.86549 6.58582 3.58579C6.86553 3.30608 7.22189 3.1156 7.60985 3.03843C7.99782 2.96126 8.39995 3.00087 8.7654 3.15224C9.13085 3.30362 9.44321 3.55996 9.66297 3.88886C9.88274 4.21776 10 4.60444 10 5C9.99839 5.52993 9.78714 6.03768 9.41243 6.41239C9.03771 6.78711 8.52996 6.99835 8.00003 7Z" fill="black"/>
</svg>
