<svg width="14" height="7" viewBox="0 0 14 7" fill="none" xmlns="http://www.w3.org/2000/svg">
<path d="M13.4313 4.17499C13.4972 4.28946 13.5152 4.42536 13.4812 4.553C13.4472 4.68064 13.3642 4.78965 13.2501 4.85624C13.1747 4.9019 13.0882 4.92571 13.0001 4.92499C12.9116 4.92579 12.8244 4.90306 12.7475 4.85914C12.6707 4.81521 12.6069 4.75167 12.5626 4.67499L11.4126 2.68749C10.7378 3.1414 9.99523 3.48526 9.21259 3.70625L9.57509 5.76249C9.597 5.89328 9.56671 6.02744 9.49074 6.13613C9.41478 6.24483 9.29919 6.31937 9.16884 6.34374H9.08134C8.96366 6.34409 8.84962 6.30291 8.75931 6.22746C8.66899 6.15201 8.60819 6.04711 8.58759 5.93124L8.23134 3.90624C7.82371 3.96702 7.41223 3.99835 7.00009 3.99999C6.58604 4.00019 6.1725 3.97095 5.76259 3.9125L5.40634 5.93749C5.38575 6.05336 5.32494 6.15826 5.23463 6.23371C5.14431 6.30916 5.03028 6.35034 4.91259 6.35H4.82509C4.69474 6.32562 4.57916 6.25108 4.50319 6.14239C4.42723 6.03369 4.39694 5.89953 4.41884 5.76874L4.78759 3.70625C4.00248 3.48669 3.25762 3.14274 2.58134 2.68749L1.42509 4.68749C1.38043 4.76242 1.31738 4.82471 1.24191 4.86846C1.16645 4.91221 1.08106 4.93597 0.993845 4.93749C0.906226 4.93719 0.820226 4.91386 0.744462 4.86985C0.668697 4.82584 0.605828 4.76269 0.562152 4.68673C0.518477 4.61078 0.495528 4.52467 0.495606 4.43706C0.495683 4.34944 0.518784 4.26337 0.562595 4.18749L1.78134 2.07499C1.35546 1.70975 0.964213 1.30595 0.612595 0.868745C0.571041 0.81808 0.539988 0.75965 0.521245 0.696862C0.502502 0.634074 0.496444 0.568183 0.503425 0.50303C0.510406 0.437877 0.530285 0.374766 0.561905 0.317373C0.593524 0.259981 0.636251 0.209456 0.687595 0.168745C0.73787 0.12684 0.795976 0.0953503 0.858531 0.0761048C0.921087 0.0568592 0.986845 0.0502425 1.05198 0.0566398C1.11712 0.0630371 1.18033 0.0823205 1.23795 0.113369C1.29556 0.144417 1.34643 0.18661 1.38759 0.237495C1.77882 0.72525 2.22559 1.16572 2.71884 1.55H2.72509C3.94556 2.50204 5.45227 3.01308 7.00009 2.99999C8.83134 2.99999 10.2376 2.35625 11.2688 1.55624H11.2813C11.7746 1.17197 12.2214 0.7315 12.6126 0.243745C12.6533 0.192401 12.7038 0.149674 12.7612 0.118055C12.8186 0.0864352 12.8817 0.0665559 12.9469 0.0595752C13.012 0.0525945 13.0779 0.0586522 13.1407 0.0773951C13.2035 0.096138 13.2619 0.127191 13.3126 0.168745C13.3639 0.209456 13.4067 0.259981 13.4383 0.317373C13.4699 0.374766 13.4898 0.437877 13.4968 0.50303C13.5037 0.568183 13.4977 0.634074 13.4789 0.696862C13.4602 0.75965 13.4291 0.81808 13.3876 0.868745C13.036 1.30595 12.6447 1.70975 12.2188 2.07499L13.4313 4.17499Z" fill="black"/>
</svg>
