<svg width="252" height="33" viewBox="0 0 252 33" fill="none" xmlns="http://www.w3.org/2000/svg">
<path d="M30.6999 29.2214C30.6999 29.6267 30.6285 30.003 30.4858 30.3504C30.343 30.6978 30.1432 31.0018 29.8863 31.2624C29.6437 31.5084 29.3511 31.7039 29.0086 31.8486C28.666 31.9934 28.295 32.0657 27.8953 32.0657H7.81412C7.30031 32.0657 6.74369 32.0078 6.14425 31.892C5.55909 31.7618 4.97392 31.5663 4.38875 31.3058C3.81786 31.0452 3.26837 30.7123 2.74029 30.307C2.21222 29.8872 1.74123 29.3878 1.32733 28.8088C0.927704 28.2153 0.606575 27.535 0.363945 26.7678C0.121315 25.9862 0 25.1104 0 24.1406V8.85472C0 8.33361 0.0570895 7.77632 0.171268 7.18283C0.29972 6.57487 0.492397 5.98139 0.749299 5.40238C1.0062 4.8089 1.3416 4.24436 1.7555 3.70878C2.1694 3.1732 2.6618 2.70275 3.23269 2.29745C3.81786 1.87766 4.48866 1.54473 5.24509 1.29865C6.00153 1.05258 6.85787 0.929537 7.81412 0.929537H30.443V6.57487H7.81412C7.08623 6.57487 6.52961 6.77029 6.14425 7.16112C5.7589 7.55195 5.56622 8.13096 5.56622 8.89815V24.1406C5.56622 24.8643 5.7589 25.4289 6.14425 25.8342C6.54388 26.225 7.1005 26.4204 7.81412 26.4204H25.1336V19.342H10.3189V13.6533H27.8953C28.295 13.6533 28.666 13.7329 29.0086 13.8921C29.3511 14.0369 29.6437 14.2395 29.8863 14.5001C30.1432 14.7606 30.343 15.0646 30.4858 15.412C30.6285 15.7449 30.6999 16.1068 30.6999 16.4976V29.2214Z" fill="#5D5FEF"/>
<path d="M42.1106 32.0657H36.5444V0.929537H42.1106V32.0657Z" fill="#5D5FEF"/>
<path d="M76.3643 6.57487H64.0972V32.0657H58.531V6.57487H46.2425V0.929537H76.3643V6.57487Z" fill="#5D5FEF"/>
<path d="M86.0838 13.6533H105.63V0.929537H111.196V32.0657H105.63V19.342H86.0838V32.0657H80.5175V0.929537H86.0838V13.6533Z" fill="#5D5FEF"/>
<path d="M147.847 32.0657H142.281V24.4228H122.714V32.0657H117.148V16.4976C117.148 14.225 117.533 12.1334 118.304 10.2226C119.074 8.3119 120.145 6.66896 121.515 5.29382C122.885 3.91867 124.505 2.8475 126.375 2.08032C128.244 1.31313 130.285 0.929537 132.497 0.929537H145.043C145.428 0.929537 145.792 1.00191 146.135 1.14666C146.477 1.29142 146.777 1.49407 147.034 1.75462C147.291 2.01518 147.491 2.31916 147.633 2.66656C147.776 3.01397 147.847 3.38309 147.847 3.77392V32.0657ZM122.714 18.7775H142.281V6.57487H132.497C132.326 6.57487 131.962 6.60383 131.406 6.66173C130.863 6.70515 130.228 6.82819 129.5 7.03084C128.787 7.2335 128.03 7.54471 127.231 7.9645C126.432 8.38428 125.697 8.96329 125.026 9.70152C124.355 10.4398 123.798 11.3662 123.356 12.4808C122.928 13.5809 122.714 14.9198 122.714 16.4976V18.7775Z" fill="#5D5FEF"/>
<path d="M185.013 29.6556C185.013 30.0609 184.934 30.4373 184.777 30.7847C184.634 31.1321 184.435 31.4361 184.178 31.6966C183.935 31.9427 183.643 32.1381 183.3 32.2829C182.957 32.4276 182.593 32.5 182.208 32.5C181.866 32.5 181.516 32.4349 181.159 32.3046C180.817 32.1743 180.51 31.9644 180.239 31.6749L159.9 10.1358V32.0657H154.334V3.33966C154.334 2.76065 154.491 2.23954 154.805 1.77634C155.133 1.29865 155.547 0.944012 156.047 0.712408C156.575 0.49528 157.117 0.444617 157.674 0.560418C158.231 0.661745 158.709 0.922299 159.108 1.34208L179.446 22.8595V0.929537H185.013V29.6556Z" fill="#5D5FEF"/>
<path d="M218.988 32.0657H198.907C198.393 32.0657 197.836 32.0078 197.237 31.892C196.652 31.7618 196.067 31.5663 195.481 31.3058C194.911 31.0452 194.361 30.7123 193.833 30.307C193.305 29.8872 192.834 29.3878 192.42 28.8088C192.02 28.2153 191.699 27.535 191.457 26.7678C191.214 25.9862 191.093 25.1104 191.093 24.1406V8.85472C191.093 8.33361 191.15 7.77632 191.264 7.18283C191.392 6.57487 191.585 5.98139 191.842 5.40238C192.099 4.8089 192.434 4.24436 192.848 3.70878C193.262 3.1732 193.754 2.70275 194.325 2.29745C194.911 1.87766 195.581 1.54473 196.338 1.29865C197.094 1.05258 197.951 0.929537 198.907 0.929537H218.988V6.57487H198.907C198.179 6.57487 197.622 6.77029 197.237 7.16112C196.852 7.55195 196.659 8.13096 196.659 8.89815V24.1406C196.659 24.8643 196.852 25.4289 197.237 25.8342C197.637 26.225 198.193 26.4204 198.907 26.4204H218.988V32.0657Z" fill="#5D5FEF"/>
<path d="M249.495 19.342H231.919V13.6533H249.495V19.342ZM252 32.0657H231.919C231.148 32.0657 230.306 31.9282 229.393 31.6532C228.479 31.3782 227.63 30.9294 226.845 30.307C226.074 29.6701 225.425 28.8522 224.897 27.8535C224.383 26.8402 224.126 25.6026 224.126 24.1406V3.77392C224.126 3.38309 224.197 3.01397 224.34 2.66656C224.483 2.31916 224.676 2.01518 224.918 1.75462C225.175 1.49407 225.475 1.29142 225.817 1.14666C226.16 1.00191 226.531 0.929537 226.931 0.929537H252V6.57487H229.692V24.1406C229.692 24.8788 229.885 25.4433 230.27 25.8342C230.656 26.225 231.219 26.4204 231.962 26.4204H252V32.0657Z" fill="#5D5FEF"/>
</svg>
