<svg width="27" height="26" viewBox="0 0 27 26" fill="none" xmlns="http://www.w3.org/2000/svg">
<path d="M14.8749 25.1666L25.8749 14.1666C26.0416 14 26.1599 13.8194 26.2299 13.625C26.2988 13.4305 26.3333 13.2222 26.3333 13C26.3333 12.7778 26.2988 12.5694 26.2299 12.375C26.1599 12.1805 26.0416 12 25.8749 11.8333L14.8749 0.833308C14.5694 0.527752 14.1877 0.367753 13.7299 0.353308C13.271 0.339975 12.8749 0.499974 12.5416 0.833308C12.2083 1.13886 12.0344 1.52053 12.0199 1.97831C12.0066 2.4372 12.1666 2.83331 12.4999 3.16664L20.6666 11.3333H2.04158C1.56936 11.3333 1.17325 11.4928 0.853252 11.8116C0.534363 12.1316 0.374918 12.5278 0.374918 13C0.374918 13.4722 0.534363 13.8678 0.853252 14.1866C1.17325 14.5066 1.56936 14.6666 2.04158 14.6666H20.6666L12.4999 22.8333C12.1944 23.1389 12.0344 23.5278 12.0199 24C12.0066 24.4722 12.1666 24.8611 12.4999 25.1666C12.8055 25.5 13.1944 25.6666 13.6666 25.6666C14.1388 25.6666 14.5416 25.5 14.8749 25.1666Z" fill="#171717"/>
</svg>
